<svg id="visual" viewBox="0 0 900 600" width="900" height="600" xmlns="http://www.w3.org/2000/svg" xmlns:xlink="http://www.w3.org/1999/xlink" version="1.1"><path d="M449 600L458 566.7C467 533.3 485 466.7 497 400C509 333.3 515 266.7 533 200C551 133.3 581 66.7 596 33.3L611 0L900 0L900 33.3C900 66.7 900 133.3 900 200C900 266.7 900 333.3 900 400C900 466.7 900 533.3 900 566.7L900 600Z" fill="#004cbb"></path><path d="M152 600L173 566.7C194 533.3 236 466.7 254 400C272 333.3 266 266.7 255.5 200C245 133.3 230 66.7 222.5 33.3L215 0L612 0L597 33.3C582 66.7 552 133.3 534 200C516 266.7 510 333.3 498 400C486 466.7 468 533.3 459 566.7L450 600Z" fill="#6198ff"></path><path d="M0 600L0 566.7C0 533.3 0 466.7 0 400C0 333.3 0 266.7 0 200C0 133.3 0 66.7 0 33.3L0 0L216 0L223.5 33.3C231 66.7 246 133.3 256.5 200C267 266.7 273 333.3 255 400C237 466.7 195 533.3 174 566.7L153 600Z" fill="#004cbb"></path></svg>